<?xml version="1.0" encoding="UTF-8" standalone="no"?>
<svg
   xmlns:dc="http://purl.org/dc/elements/1.1/"
   xmlns:cc="http://creativecommons.org/ns#"
   xmlns:rdf="http://www.w3.org/1999/02/22-rdf-syntax-ns#"
   xmlns:svg="http://www.w3.org/2000/svg"
   xmlns="http://www.w3.org/2000/svg"
   viewBox="0 0 72.199997 104.29333"
   height="104.29333"
   width="72.199997"
   xml:space="preserve"
   id="svg2"
   version="1.1"><metadata
     id="metadata8"><rdf:RDF><cc:Work
         rdf:about=""><dc:format>image/svg+xml</dc:format><dc:type
           rdf:resource="http://purl.org/dc/dcmitype/StillImage" /></cc:Work></rdf:RDF></metadata><defs
     id="defs6" /><g
     transform="matrix(1.3333333,0,0,-1.3333333,0,104.29333)"
     id="g10"><g
       transform="scale(0.1)"
       id="g12"><path
         id="path14"
         style="fill:#192947;fill-opacity:1;fill-rule:nonzero;stroke:none"
         d="m 421.191,180.508 h 90.254 V 30.0898 H 30.0781 V 180.508 h 90.2659 c 16.597,0 30.078,13.476 30.078,30.09 v 361.015 c 0,16.621 -13.481,30.086 -30.078,30.086 H 30.0781 V 752.121 H 511.445 V 601.699 h -90.254 c -16.621,0 -30.086,-13.465 -30.086,-30.086 V 210.598 c 0,-16.614 13.465,-30.09 30.086,-30.09 z M 541.523,571.613 V 782.207 H 0 V 571.613 H 120.344 V 210.598 L 0,210.598 V 0 H 541.523 V 210.598 H 421.191 v 361.015 h 120.332" /><path
         id="path16"
         style="fill:#E84A27;fill-opacity:1;fill-rule:nonzero;stroke:none"
         d="m 421.191,601.699 h 90.254 V 752.121 H 30.0781 V 601.699 h 90.2659 c 16.597,0 30.078,-13.465 30.078,-30.086 V 210.598 c 0,-16.614 -13.481,-30.09 -30.078,-30.09 H 30.0781 V 30.0898 H 511.445 V 180.508 h -90.254 c -16.621,0 -30.086,13.476 -30.086,30.09 v 361.015 c 0,16.621 13.465,30.086 30.086,30.086" /></g></g></svg>